<svg width="50" height="54" viewBox="0 0 50 54" fill="none" xmlns="http://www.w3.org/2000/svg">
<path d="M49.4305 13.7721C49.4228 13.6782 49.3944 13.5871 49.3473 13.5054C49.3003 13.4237 49.2357 13.3534 49.1583 13.2996C49.1605 13.2974 25.2678 0.0718895 25.2678 0.0673895C25.1856 0.022687 25.0936 -0.000732422 25 -0.000732422C24.9065 -0.000732422 24.8144 0.022687 24.7323 0.0673895C24.7255 0.0673895 0.853027 13.2929 0.850777 13.2974C0.771081 13.3505 0.704532 13.421 0.656187 13.5037C0.607842 13.5863 0.578975 13.6789 0.571777 13.7744V40.4099C0.603277 40.5359 0.610027 40.6911 0.729277 40.7699C0.772027 40.9499 24.6198 53.8199 24.7368 53.9346C24.8176 53.9784 24.9081 54.0013 25 54.0013C25.0919 54.0013 25.1824 53.9784 25.2633 53.9346C25.27 53.9324 49.1448 40.8959 49.147 40.8891C49.2266 40.8352 49.2932 40.7642 49.3418 40.6813C49.3905 40.5984 49.42 40.5057 49.4283 40.4099V13.7699L49.4305 13.7721ZM9.75628 34.7646L1.67203 39.4514V14.7149L9.75628 19.2396V34.7646ZM40.2438 19.2396L48.328 14.7171V39.4514L40.246 34.7624L40.2438 19.2396ZM38.5788 18.9134L25 26.5499C20.4737 24.0038 15.9475 21.4575 11.4213 18.9111L25 11.1036L38.5788 18.9134ZM10.8588 34.7556V19.8606L24.4488 27.5039V42.2301L10.8588 34.7556V34.7556ZM25.5513 42.2301V27.5061L39.1413 19.8606V34.7556L25.5513 42.2301ZM25 1.18114L47.7475 13.7766L39.697 18.2834L25.2745 9.98989C25.1912 9.94126 25.0965 9.91563 25 9.91563C24.9036 9.91563 24.8088 9.94126 24.7255 9.98989L10.303 18.2834L2.25253 13.7766L25 1.18114ZM10.3143 35.7141L24.4488 43.4879V52.5194L2.24578 40.3919L10.3143 35.7141ZM25.5513 52.5194V43.4879L39.6858 35.7141L47.7543 40.3919L25.5513 52.5194Z" fill="#202020"/>
</svg>
